<svg width="20" height="20" viewBox="0 0 20 20" fill="none" xmlns="http://www.w3.org/2000/svg">
<g id="web">
<path id="Vector" d="M13.6333 11.6665C13.7 11.1165 13.75 10.5665 13.75 9.99984C13.75 9.43317 13.7 8.88317 13.6333 8.33317H16.45C16.5833 8.8665 16.6666 9.42484 16.6666 9.99984C16.6666 10.5748 16.5833 11.1332 16.45 11.6665H13.6333ZM12.1583 16.2998C12.6583 15.3748 13.0416 14.3748 13.3083 13.3332H15.7666C14.9666 14.7082 13.6916 15.7748 12.1583 16.2998ZM11.95 11.6665H8.04996C7.96663 11.1165 7.91663 10.5665 7.91663 9.99984C7.91663 9.43317 7.96663 8.87484 8.04996 8.33317H11.95C12.025 8.87484 12.0833 9.43317 12.0833 9.99984C12.0833 10.5665 12.025 11.1165 11.95 11.6665ZM9.99996 16.6332C9.30829 15.6332 8.74996 14.5248 8.40829 13.3332H11.5916C11.25 14.5248 10.6916 15.6332 9.99996 16.6332ZM6.66663 6.6665H4.23329C5.02496 5.28317 6.30829 4.2165 7.83329 3.69984C7.33329 4.62484 6.95829 5.62484 6.66663 6.6665ZM4.23329 13.3332H6.66663C6.95829 14.3748 7.33329 15.3748 7.83329 16.2998C6.30829 15.7748 5.02496 14.7082 4.23329 13.3332ZM3.54996 11.6665C3.41663 11.1332 3.33329 10.5748 3.33329 9.99984C3.33329 9.42484 3.41663 8.8665 3.54996 8.33317H6.36663C6.29996 8.88317 6.24996 9.43317 6.24996 9.99984C6.24996 10.5665 6.29996 11.1165 6.36663 11.6665H3.54996ZM9.99996 3.35817C10.6916 4.35817 11.25 5.47484 11.5916 6.6665H8.40829C8.74996 5.47484 9.30829 4.35817 9.99996 3.35817ZM15.7666 6.6665H13.3083C13.0416 5.62484 12.6583 4.62484 12.1583 3.69984C13.6916 4.22484 14.9666 5.28317 15.7666 6.6665ZM9.99996 1.6665C5.39163 1.6665 1.66663 5.4165 1.66663 9.99984C1.66663 12.21 2.5446 14.3296 4.1074 15.8924C4.88122 16.6662 5.79988 17.28 6.81093 17.6988C7.82198 18.1176 8.90561 18.3332 9.99996 18.3332C12.2101 18.3332 14.3297 17.4552 15.8925 15.8924C17.4553 14.3296 18.3333 12.21 18.3333 9.99984C18.3333 8.90549 18.1177 7.82186 17.699 6.81081C17.2802 5.79976 16.6663 4.8811 15.8925 4.10728C15.1187 3.33346 14.2 2.71963 13.189 2.30084C12.1779 1.88205 11.0943 1.6665 9.99996 1.6665Z" fill="#ADBFDF"/>
</g>
</svg>
