<svg width="56" height="26" viewBox="0 0 56 26" fill="none" xmlns="http://www.w3.org/2000/svg">
<rect x="1" y="0.5" width="54" height="25" rx="3.5" fill="#FEE9EF"/>
<path d="M17.2568 18H16.04V9.25684H10.7627V18H9.52539V8.13574H17.2568V18ZM21.0234 14.8623C20.9915 15.2725 20.946 15.6348 20.8867 15.9492C20.832 16.2637 20.7523 16.5576 20.6475 16.8311C20.5426 17.1045 20.4128 17.3301 20.2578 17.5078C20.1074 17.681 19.9183 17.8177 19.6904 17.918C19.4671 18.0137 19.2074 18.0615 18.9111 18.0615C18.7471 18.0615 18.6058 18.0365 18.4873 17.9863V16.9131C18.5967 16.9495 18.7174 16.9678 18.8496 16.9678C19.1823 16.9678 19.4307 16.7878 19.5947 16.4277C19.7588 16.0632 19.8636 15.5322 19.9092 14.835L20.1826 10.8906H24.8379V18H23.6621V11.8682H21.2422L21.0234 14.8623ZM29.4727 18.123C28.4792 18.123 27.6816 17.7926 27.0801 17.1318C26.4785 16.4665 26.1777 15.571 26.1777 14.4453C26.1777 13.3197 26.4785 12.4264 27.0801 11.7656C27.6816 11.1003 28.4792 10.7676 29.4727 10.7676C30.4616 10.7676 31.2568 11.1003 31.8584 11.7656C32.46 12.4264 32.7607 13.3197 32.7607 14.4453C32.7607 15.5664 32.46 16.4596 31.8584 17.125C31.2568 17.7904 30.4616 18.123 29.4727 18.123ZM27.9482 16.3799C28.3265 16.8447 28.8346 17.0771 29.4727 17.0771C30.1107 17.0771 30.6165 16.847 30.9902 16.3867C31.3639 15.9219 31.5508 15.2747 31.5508 14.4453C31.5508 13.6159 31.3639 12.971 30.9902 12.5107C30.6165 12.0459 30.1107 11.8135 29.4727 11.8135C28.8346 11.8135 28.3265 12.0459 27.9482 12.5107C27.5745 12.9756 27.3877 13.6204 27.3877 14.4453C27.3877 15.2702 27.5745 15.915 27.9482 16.3799ZM36.4658 15.293H36.4385L34.7227 18H33.4033L35.8232 14.4453L33.4443 10.8906H34.7705L36.4795 13.5566H36.5068L38.1953 10.8906H39.5215L37.1221 14.3975L39.4873 18H38.168L36.4658 15.293ZM43.459 18.123C42.4655 18.123 41.668 17.7926 41.0664 17.1318C40.4648 16.4665 40.1641 15.571 40.1641 14.4453C40.1641 13.3197 40.4648 12.4264 41.0664 11.7656C41.668 11.1003 42.4655 10.7676 43.459 10.7676C44.4479 10.7676 45.2432 11.1003 45.8447 11.7656C46.4463 12.4264 46.7471 13.3197 46.7471 14.4453C46.7471 15.5664 46.4463 16.4596 45.8447 17.125C45.2432 17.7904 44.4479 18.123 43.459 18.123ZM41.9346 16.3799C42.3128 16.8447 42.821 17.0771 43.459 17.0771C44.097 17.0771 44.6029 16.847 44.9766 16.3867C45.3503 15.9219 45.5371 15.2747 45.5371 14.4453C45.5371 13.6159 45.3503 12.971 44.9766 12.5107C44.6029 12.0459 44.097 11.8135 43.459 11.8135C42.821 11.8135 42.3128 12.0459 41.9346 12.5107C41.5609 12.9756 41.374 13.6204 41.374 14.4453C41.374 15.2702 41.5609 15.915 41.9346 16.3799Z" fill="#EA1A4F"/>
<rect x="1" y="0.5" width="54" height="25" rx="3.5" stroke="#EA1A4F"/>
</svg>
